<svg class="icon" viewBox="0 0 1451 1024" version="1.1"
  xmlns="http://www.w3.org/2000/svg" xmlns:xlink="http://www.w3.org/1999/xlink"
  width="36" height="36">
  <path
     d="M 702.29043,592.04719 403.05555,316.39902 c 0,-44.34435 31.98003,-46.23235 31.98003,-46.23235 h 181.59429 219.28801 180.04652 c 0,0 31.98,1.888 31.98,46.23235 L 750.25728,592.04719 c 0,0 -3.08902,1.73913 -7.99019,3.39029 v 0.006 c -5.39769,2.28048 -10.87924,3.02486 -15.98678,2.91659 -5.10751,0.10827 -10.58908,-0.63611 -15.98678,-2.91659 v -0.006 c -4.91407,-1.65792 -8.00309,-3.39029 -8.0031,-3.39029 z m 23.98342,61.46492 C 715.34299,653.23468 699.6335,649.07295 681.7314,632.79149 647.46844,601.62931 403.05555,370.32547 403.05555,370.32547 v 345.15911 c 0,0 0,38.34875 37.68731,38.34875 h 269.53776 31.98002 267.99006 c 37.6937,0 37.6937,-38.34875 37.6937,-38.34875 V 370.32547 c 0,0 -242.86512,231.30384 -277.12804,262.46601 -17.90214,16.28147 -33.61163,20.44996 -44.54251,20.72063 z"
     id="path2"
     inkscape:connector-curvature="0"
     style="stroke-width:0.46109414" />
</svg>
