<svg class="icon" viewBox="0 0 1451 1024" version="1.1"
  xmlns="http://www.w3.org/2000/svg" xmlns:xlink="http://www.w3.org/1999/xlink"
  width="36" height="36">
  <path
     d="m 725.50001,189.55556 c -178.15057,0 -322.44446,148.04014 -322.44446,330.63122 0,146.11147 92.38033,270.01552 220.47139,313.68638 16.12223,3.11342 22.03371,-7.10862 22.03371,-15.89784 0,-7.8525 -0.26871,-28.6547 -0.40305,-56.20732 C 555.4643,781.71609 536.54755,717.40832 536.54755,717.40832 521.87633,679.24797 500.6756,669.0535 500.6756,669.0535 c -29.20809,-20.49913 2.25711,-20.08585 2.25711,-20.08585 32.3788,2.31442 49.38776,34.05503 49.38776,34.05503 28.75127,50.55902 75.47886,35.95614 93.91193,27.49749 2.90201,-21.38083 11.20494,-35.95614 20.42148,-44.22192 -71.60953,-8.26579 -146.87344,-36.70007 -146.87344,-163.38693 0,-36.09392 12.49471,-65.57521 33.1849,-88.71938 -3.6275,-8.34844 -14.51001,-41.96263 2.82138,-87.50707 0,0 27.00473,-8.87194 88.67223,33.8897 25.79556,-7.35655 53.20335,-10.99348 80.61113,-11.1588 27.40776,0.16532 54.81554,3.80225 80.61111,11.1588 61.26443,-42.76164 88.26917,-33.8897 88.26917,-33.8897 17.33137,45.54444 6.44887,79.15863 3.22443,87.50707 20.55583,23.14417 33.05055,52.62546 33.05055,88.71938 0,127.0175 -75.37138,154.98337 -147.11527,163.11141 11.28555,9.91891 21.765,30.19763 21.765,61.16676 0,44.24948 -0.40307,79.79235 -0.40307,90.53786 0,8.67897 5.64281,19.01126 22.16808,15.70499 129.00463,-43.3678 221.30432,-167.35452 221.30432,-313.24556 0,-182.59108 -144.37446,-330.63122 -322.4444,-330.63122"
     id="path2"
     inkscape:connector-curvature="0"
     style="stroke-width:0.63771909" />
</svg>
