<svg class="icon" viewBox="0 0 1451 1024" version="1.1"
  xmlns="http://www.w3.org/2000/svg" xmlns:xlink="http://www.w3.org/1999/xlink"
  width="36" height="36">
  <path
     d="m 675.81724,785.06666 c 0,-239.68427 -197.19964,-436.90667 -436.88391,-436.90667 V 238.93333 c 299.57689,0 546.13333,246.55644 546.13333,546.13333 z M 313.82187,635.22133 a 75.093333,75.093333 0 0 1 74.93404,74.97955 75.1616,75.1616 0 0 1 -75.11609,74.86578 c -41.25582,0 -74.70649,-33.54169 -74.70649,-74.86578 0,-41.32409 33.56445,-74.9568 74.88854,-74.97955 z M 600.95146,785.06666 H 494.7968 c 0,-140.37902 -115.48445,-255.88622 -255.86347,-255.88622 V 423.02577 c 198.58773,0 362.01813,163.47591 362.01813,362.04089 z"
     id="path2"
     inkscape:connector-curvature="0"
     style="stroke-width:0.53333336" />
</svg>
